<svg width="20" height="20" viewBox="0 0 20 20" fill="none" xmlns="http://www.w3.org/2000/svg">
<path fill-rule="evenodd" clip-rule="evenodd" d="M2.37167 5.23917C2.39667 4.99333 2.3025 4.75083 2.11917 4.58583L0.2525 2.33583V2H6.05083L10.5325 11.8292L14.4725 2H20V2.33583L18.4033 3.86667C18.2658 3.97167 18.1975 4.14417 18.2258 4.315V15.5633C18.1975 15.7333 18.2658 15.9058 18.4033 16.0108L19.9625 17.5417V17.8775H12.1192V17.5417L13.735 15.9733C13.8933 15.815 13.8933 15.7683 13.8933 15.5258V6.43417L9.4025 17.8408H8.79583L3.56667 6.43417V14.0792C3.52333 14.4 3.63 14.7242 3.85583 14.9558L5.95667 17.5042V17.8408H0V17.5042L2.10083 14.9558C2.32583 14.7233 2.42583 14.3975 2.37167 14.0792V5.23917Z" fill="white"/>
</svg>
