<svg width="20" height="20" viewBox="0 0 20 20" fill="none" xmlns="http://www.w3.org/2000/svg">
<g clip-path="url(#clip0)">
<path fill-rule="evenodd" clip-rule="evenodd" d="M13.3198 18.9826C13.5882 19.1726 13.934 19.2201 14.2423 19.1035C14.5507 18.986 14.7773 18.7226 14.8457 18.4035C15.5698 15.0001 17.3265 6.38596 17.9857 3.29012C18.0357 3.05679 17.9523 2.81429 17.769 2.65846C17.5857 2.50262 17.3315 2.45762 17.1048 2.54179C13.6107 3.83512 2.84984 7.87262 -1.54849 9.50012C-1.82766 9.60346 -2.00932 9.87179 -2.00016 10.166C-1.99016 10.461 -1.79182 10.7168 -1.50599 10.8026C0.46651 11.3926 3.05568 12.2135 3.05568 12.2135C3.05568 12.2135 4.26568 15.8676 4.89651 17.726C4.97568 17.9593 5.15818 18.1426 5.39901 18.206C5.63901 18.2685 5.89568 18.2026 6.07484 18.0335C7.08818 17.0768 8.65484 15.5976 8.65484 15.5976C8.65484 15.5976 11.6315 17.7801 13.3198 18.9826ZM4.14484 11.7518L5.54401 16.3668L5.85484 13.4443C5.85484 13.4443 11.2607 8.56846 14.3423 5.78929C14.4323 5.70762 14.4448 5.57096 14.3698 5.47512C14.2957 5.37929 14.159 5.35679 14.0565 5.42179C10.4848 7.70262 4.14484 11.7518 4.14484 11.7518Z" fill="white"/>
</g>
<defs>
<clipPath id="clip0">
<rect width="20" height="20" fill="white"/>
</clipPath>
</defs>
</svg>
